<svg width="94" height="24" viewBox="0 0 94 24" fill="none" xmlns="http://www.w3.org/2000/svg">
<g clip-path="url(#clip0_9721_323)">
<path d="M27.6 0C30.3982 0 32.6803 2.21026 32.7954 4.98019L32.8 5.2V18.8C32.8 21.5982 30.5897 23.8803 27.8198 23.9954L27.6 24H14C11.2018 24 8.91975 21.7897 8.80456 19.0198L8.8 18.8L8.79942 13.6219L5.49671 13.6219C3.41213 13.6219 1.69511 12.0207 1.60382 9.99191L1.6 9.82187L1.5992 5.33017C0.653651 4.88062 0 3.91664 0 2.8C0 1.2536 1.2536 0 2.8 0C4.3464 0 5.6 1.2536 5.6 2.8C5.6 3.91664 4.94635 4.88062 4.0008 5.33017L4 9.8C4 10.525 4.59609 11.136 5.37265 11.1953L5.49671 11.2L8.79942 11.1994L8.8 5.2C8.8 2.40176 11.0103 0.119748 13.7802 0.00456187L14 0H27.6ZM27.6 2.4H14C12.5109 2.4 11.2933 3.56246 11.2051 5.02943L11.2 5.2V18.8C11.2 20.2891 12.3625 21.5067 13.8294 21.5949L14 21.6H27.6C29.0891 21.6 30.3067 20.4375 30.3949 18.9706L30.4 18.8V5.2C30.4 3.6536 29.1464 2.4 27.6 2.4ZM74.9999 6.84815C76.6493 6.84815 77.9446 7.34398 78.8957 8.34576C79.8469 9.34754 80.3225 10.6023 80.3225 12.1201C80.3225 12.3175 80.3111 12.5319 80.2841 12.7591L80.2517 12.9904H71.7821C71.8529 13.8707 72.1869 14.5791 72.794 15.1154C73.4011 15.6517 74.2208 15.9249 75.2428 15.9249C76.5999 15.9249 77.5598 15.4285 78.1141 14.4271L78.2077 14.2451L80.191 14.832C79.8166 15.6517 79.1993 16.3499 78.3392 16.9267C77.5508 17.4554 76.6008 17.746 75.4892 17.7908L75.1821 17.7969L75.2023 17.8171C73.5529 17.8171 72.2172 17.3112 71.1851 16.2993C70.1529 15.2874 69.6369 13.9618 69.6369 12.3326C69.6369 10.7642 70.1327 9.45885 71.1244 8.4166C72.116 7.37434 73.4113 6.84815 74.9999 6.84815ZM54.013 6.83803C55.6017 6.83803 56.9272 7.3541 57.9796 8.39636C59.032 9.43861 59.5582 10.744 59.5582 12.3124C59.5582 13.8808 59.032 15.1862 57.9796 16.2285C56.993 17.2056 55.7752 17.7291 54.3178 17.7907L54.0231 17.7969H54.013C52.4243 17.7969 51.1088 17.2707 50.0564 16.2285C49.0041 15.1862 48.4779 13.8808 48.4779 12.3124C48.4779 10.7541 49.0041 9.44873 50.0564 8.40648C51.1088 7.36422 52.4243 6.83803 54.013 6.83803ZM87.9895 6.83803C89.5782 6.83803 90.9038 7.3541 91.9562 8.39636C93.0086 9.43861 93.5347 10.744 93.5347 12.3124C93.5347 13.8808 93.0086 15.1862 91.9562 16.2285C90.9696 17.2056 89.7517 17.7291 88.2943 17.7907L87.9997 17.7969H87.9895C86.4009 17.7969 85.0854 17.2707 84.033 16.2285C82.9806 15.1862 82.4544 13.8808 82.4544 12.3124C82.4544 10.7541 82.9806 9.44873 84.033 8.40648C85.0854 7.36422 86.4009 6.83803 87.9895 6.83803ZM21.0667 6.4C22.4707 6.4 23.6463 6.74096 24.6041 7.42288C25.5619 8.1048 26.1605 8.8797 26.4 9.75793C26.4876 10.373 26.2439 10.7756 25.6688 10.9659C25.0936 11.1562 24.6154 10.9498 24.234 10.3469C24.0707 9.81993 23.7007 9.36531 23.1238 8.97269C22.5469 8.58007 21.8721 8.38376 21.0993 8.38376C20.0327 8.38376 19.1619 8.73506 18.4871 9.42731C17.8122 10.1196 17.4748 10.9668 17.4748 11.969C17.4748 12.9506 17.8122 13.7978 18.4871 14.5107C19.1619 15.2236 20.0327 15.5749 21.0884 15.5749C21.8612 15.5749 22.5361 15.3889 23.1129 15.017C23.6898 14.645 24.0599 14.2007 24.2231 13.6738C24.5717 13.1591 25.0098 12.9659 25.5376 13.0942C26.0653 13.2225 26.3492 13.6052 26.3891 14.2421C26.1497 15.0996 25.5619 15.8642 24.615 16.5461C23.668 17.228 22.4925 17.6 21.0884 17.6C19.4014 17.6 17.9973 17.0627 16.8762 15.9882C15.7551 14.9137 15.2 13.5808 15.2 11.9897C15.2 10.3985 15.7551 9.06568 16.8653 8.00148C17.9755 6.93727 19.3796 6.4 21.0667 6.4ZM38.2895 2.3958V8.64933C39.099 7.50648 40.2043 6.90144 41.6054 6.83422L41.8716 6.82792V6.80768C43.1972 6.80768 44.2192 7.21244 44.9376 8.03208C45.6048 8.79317 45.9578 9.81601 46.0048 11.1006L46.0102 11.4017V17.5136H43.8549V11.7963C43.8549 10.8755 43.6424 10.1571 43.2073 9.64099C42.7722 9.12493 42.1347 8.86183 41.2948 8.86183C40.3841 8.86183 39.6555 9.17552 39.1091 9.81302C38.6082 10.3974 38.3369 11.1518 38.2951 12.0841L38.2895 12.3428V17.5237H36.1139V2.3958H38.2895ZM67.6589 6.96095L67.9318 6.98982V9.01362C66.7883 8.84159 65.908 9.06421 65.2907 9.68147C64.7146 10.2576 64.4117 11.2039 64.3739 12.5287L64.3699 12.8184V17.5237H62.1943V7.10113H64.3699L64.3694 8.7528L64.4584 8.58133C64.7681 8.02762 65.2006 7.60505 65.7562 7.31363C66.3049 7.0258 66.9415 6.90587 67.6589 6.96095ZM54.013 8.81124C53.0213 8.81124 52.2017 9.14516 51.5642 9.81302C50.9267 10.4809 50.6029 11.3207 50.6029 12.3326C50.6029 13.3243 50.9267 14.1541 51.5642 14.8219C52.2017 15.4898 53.0213 15.8237 54.013 15.8237C55.0046 15.8237 55.8243 15.4898 56.4719 14.8219C57.1195 14.1541 57.4433 13.3243 57.4433 12.3326C57.4433 11.3207 57.1195 10.4809 56.4719 9.81302C55.8243 9.14516 55.0046 8.81124 54.013 8.81124ZM87.9895 8.81124C86.9979 8.81124 86.1782 9.14516 85.5407 9.81302C84.9032 10.4809 84.5794 11.3207 84.5794 12.3326C84.5794 13.3243 84.9032 14.1541 85.5407 14.8219C86.1782 15.4898 86.9979 15.8237 87.9895 15.8237C88.9812 15.8237 89.8008 15.4898 90.4484 14.8219C91.0961 14.1541 91.4199 13.3243 91.4199 12.3326C91.4199 11.3207 91.0961 10.4809 90.4484 9.81302C89.8008 9.14516 88.9812 8.81124 87.9895 8.81124ZM75.0101 8.73028C74.1095 8.73028 73.3708 9.0035 72.7839 9.54992C72.2557 10.0417 71.9324 10.6318 71.814 11.3203L71.7821 11.5535H78.1874C78.1166 10.7237 77.8029 10.0458 77.2463 9.51957C76.6898 8.99338 75.941 8.73028 75.0101 8.73028Z" fill="#5567D5"/>
</g>
<defs>
<clipPath id="clip0_9721_323">
<rect width="93.5347" height="24" fill="white"/>
</clipPath>
</defs>
</svg>
